<?xml version="1.0" encoding="iso-8859-1"?>
<!-- Generator: Adobe Illustrator 19.0.0, SVG Export Plug-In . SVG Version: 6.00 Build 0)  -->
<svg version="1.1" id="Layer_1" xmlns="http://www.w3.org/2000/svg" xmlns:xlink="http://www.w3.org/1999/xlink" x="0px" y="0px"
	 viewBox="0 0 512 512" style="enable-background:new 0 0 512 512;" xml:space="preserve">
<g>
	<g>
		<path d="M221.795,303.566H179.04c-4.428,0-8.017,3.589-8.017,8.017s3.588,8.017,8.017,8.017h42.756
			c4.428,0,8.017-3.589,8.017-8.017S226.224,303.566,221.795,303.566z"/>
	</g>
</g>
<g>
	<g>
		<path d="M221.795,329.219H179.04c-4.428,0-8.017,3.589-8.017,8.017s3.588,8.017,8.017,8.017h42.756
			c4.428,0,8.017-3.589,8.017-8.017S226.224,329.219,221.795,329.219z"/>
	</g>
</g>
<g>
	<g>
		<path d="M221.795,354.873H179.04c-4.428,0-8.017,3.589-8.017,8.017s3.588,8.017,8.017,8.017h42.756
			c4.428,0,8.017-3.589,8.017-8.017S226.224,354.873,221.795,354.873z"/>
	</g>
</g>
<g>
	<g>
		<path d="M434.57,283.005l-19.558-83.121h12.01c18.566,0,33.67-15.105,33.67-33.67s-15.105-33.67-33.67-33.67H324.409
			c-4.428,0-8.017,3.589-8.017,8.017s3.588,8.017,8.017,8.017h34.739v34.739c0,4.427,3.588,8.017,8.017,8.017
			c4.428,0,8.017-3.589,8.017-8.017v-34.739h11.288l30.699,130.469c-5.162-0.741-10.435-1.133-15.798-1.133
			c-9.02,0-17.789,1.093-26.188,3.139v-63.889c0-4.427-3.588-8.017-8.017-8.017c-4.428,0-8.017,3.589-8.017,8.017v69.13
			c-27.099,11.231-48.798,32.93-60.029,60.029h-9.449v-60.392v-34.205c0-13.851-11.268-25.119-25.119-25.119h-51.307
			c-23.281,0-42.221,18.941-42.221,42.221v9.086h-3.307l-14.864-44.591v-93.296h9.086c4.428,0,8.017-3.589,8.017-8.017V97.804
			c0-4.427-3.588-8.017-8.017-8.017H92.994v-6.06c2.594,0.417,11.199,1.735,20.557,2.462c7.268,0.565,14.808,0.975,22.025-0.316
			c3.628-0.649,7.259-1.852,9.918-4.512c4.746-4.744,7.358-11.052,7.358-17.762c0-6.709-2.612-13.018-7.357-17.762
			c-4.744-4.744-11.052-7.357-17.762-7.357c-6.708,0-13.017,2.612-17.761,7.357c-4.271,4.27-11.817,12.614-16.978,18.387v-0.625
			c0-4.427-3.588-8.017-8.017-8.017c-4.428,0-8.017,3.589-8.017,8.017v0.625c-5.162-5.773-12.707-14.117-16.978-18.387
			c-4.744-4.745-11.052-7.357-17.761-7.357c-6.709,0-13.018,2.613-17.761,7.357c-4.746,4.744-7.358,11.052-7.358,17.762
			c0,6.709,2.612,13.018,7.357,17.762c2.659,2.659,6.289,3.863,9.917,4.513c7.216,1.291,14.757,0.882,22.026,0.316
			c9.358-0.728,17.963-2.045,20.557-2.462v6.058H8.017C3.588,89.787,0,93.376,0,97.804v34.205c0,4.427,3.588,8.017,8.017,8.017
			h9.086v86.58H8.017c-4.428,0-8.017,3.589-8.017,8.017s3.588,8.017,8.017,8.017h131.041l11.758,35.273h-5.98
			c-42.141,0-76.426,34.285-76.426,76.426v34.205c0,4.427,3.588,8.017,8.017,8.017h17.645c-0.001,0.178-0.009,0.357-0.009,0.534
			c0,42.141,34.285,76.426,76.426,76.426s76.426-34.285,76.426-76.426c0-0.177-0.008-0.356-0.009-0.534h78.045
			c-0.001,0.178-0.009,0.357-0.009,0.534c0,42.141,34.285,76.426,76.426,76.426s76.426-34.285,76.426-76.426
			c0-0.177-0.007-0.356-0.009-0.534h26.198c4.428,0,8.017-3.589,8.017-8.017C512,339.104,479.401,297.138,434.57,283.005z
			 M435.04,150.523c5.701,2.927,9.62,8.854,9.62,15.69c0,6.837-3.919,12.764-9.62,15.689V150.523z M402.94,148.576h16.067v35.273
			h-7.767L402.94,148.576z M121.308,57.175c3.457-3.457,9.205-3.51,12.725-0.12c3.484,3.356,3.694,9.041,0.444,12.632
			c-3.059,1.304-13.163,1.246-24.896,0.068C113.824,65.062,118.44,60.044,121.308,57.175z M35.477,69.688
			c-3.25-3.591-3.039-9.276,0.445-12.632c3.519-3.391,9.267-3.335,12.723,0.12h0.001c2.869,2.868,7.484,7.888,11.729,12.583
			C48.647,70.937,38.541,70.994,35.477,69.688z M76.96,226.605H33.136v-86.58H76.96V226.605z M76.96,123.992H16.033V105.82H76.96
			V123.992z M187.056,268.827c0-14.44,11.747-26.188,26.188-26.188h51.307c5.01,0,9.086,4.076,9.086,9.086v26.188h-86.58V268.827z
			 M136.818,226.605H92.994v-86.58h43.825V226.605z M92.994,123.992V105.82h60.927v18.171H92.994z M170.489,457.486
			c-33.3,0-60.393-27.092-60.393-60.393c0-0.178,0.015-0.356,0.016-0.534h26.728c-0.003,0.178-0.022,0.356-0.022,0.534
			c0,18.566,15.105,33.67,33.67,33.67c18.566,0,33.67-15.105,33.67-33.67c0-0.178-0.019-0.356-0.022-0.534h26.728
			c0.003,0.178,0.018,0.356,0.018,0.534C230.881,430.394,203.789,457.486,170.489,457.486z M152.852,397.094
			c0-0.178,0.017-0.356,0.022-0.534h35.23c0.005,0.178,0.021,0.356,0.021,0.534c0,9.725-7.912,17.637-17.637,17.637
			S152.852,406.819,152.852,397.094z M291.031,380.526H84.443v-26.188c0-33.3,27.092-60.392,60.393-60.392h128.802v60.392
			c0,4.427,3.588,8.017,8.017,8.017h12.225C292.444,368.243,291.479,374.314,291.031,380.526z M401.37,457.486
			c-33.3,0-60.392-27.092-60.392-60.393c0-0.178,0.015-0.356,0.016-0.534h26.728c-0.003,0.178-0.022,0.356-0.022,0.534
			c0,18.566,15.104,33.67,33.67,33.67s33.67-15.105,33.67-33.67c0-0.178-0.019-0.356-0.022-0.534h26.728
			c0.003,0.178,0.018,0.356,0.018,0.534C461.762,430.394,434.67,457.486,401.37,457.486z M383.733,397.094
			c0-0.178,0.017-0.356,0.022-0.534h35.23c0.005,0.178,0.021,0.356,0.021,0.534c0,9.725-7.912,17.637-17.637,17.637
			S383.733,406.819,383.733,397.094z M307.108,380.526c4.082-48.424,44.799-86.58,94.261-86.58c49.462,0,90.178,38.156,94.261,86.58
			H307.108z"/>
	</g>
</g>
<g>
	<g>
		<path d="M472.238,359.881c-3.245-8.018-7.805-15.385-13.55-21.894c-2.932-3.32-7.997-3.635-11.316-0.706
			c-3.319,2.93-3.635,7.995-0.705,11.315c4.543,5.147,8.145,10.967,10.709,17.3c1.262,3.119,4.264,5.011,7.434,5.011
			c1.002,0,2.02-0.189,3.005-0.588C471.919,368.659,473.898,363.985,472.238,359.881z"/>
	</g>
</g>
<g>
	<g>
		<path d="M438.408,321.677c-11.269-6.254-24.077-9.56-37.038-9.56c-4.428,0-8.017,3.589-8.017,8.017s3.588,8.017,8.017,8.017
			c10.246,0,20.364,2.609,29.258,7.546c1.232,0.684,2.566,1.009,3.883,1.009c2.819,0,5.552-1.489,7.016-4.128
			C443.675,328.706,442.279,323.827,438.408,321.677z"/>
	</g>
</g>
<g>
</g>
<g>
</g>
<g>
</g>
<g>
</g>
<g>
</g>
<g>
</g>
<g>
</g>
<g>
</g>
<g>
</g>
<g>
</g>
<g>
</g>
<g>
</g>
<g>
</g>
<g>
</g>
<g>
</g>
</svg>
