<?xml version="1.0" encoding="utf-8"?>
<!-- Svg Vector Icons : http://www.onlinewebfonts.com/icon -->
<!DOCTYPE svg PUBLIC "-//W3C//DTD SVG 1.1//EN" "http://www.w3.org/Graphics/SVG/1.1/DTD/svg11.dtd">
<svg version="1.1" xmlns="http://www.w3.org/2000/svg" xmlns:xlink="http://www.w3.org/1999/xlink" x="0px" y="0px" viewBox="0 0 1000 1000" enable-background="new 0 0 1000 1000" xml:space="preserve">
<metadata> Svg Vector Icons : http://www.onlinewebfonts.com/icon </metadata>
<g><g transform="translate(0.000000,511.000000) scale(0.100000,-0.100000)"><path d="M1713.1,4993c-257.4-38.8-494.4-143-561.8-249.2c-16.3-24.5-206.3-590.4-420.8-1258.4c-308.5-951.9-388.1-1227.7-380-1278.8c28.6-147.1,171.6-251.3,443.3-318.7c145-36.8,208.4-42.9,447.4-32.7c306.4,12.3,447.4,42.9,663.9,145c155.3,73.5,275.8,177.7,312.5,269.7c24.5,65.4,473.9,2396.2,473.9,2461.6c0,75.6-122.6,173.6-275.8,220.6C2248.3,5003.2,1911.3,5023.6,1713.1,4993z"/><path d="M3743.7,4995.1c-255.4-40.9-451.5-124.6-523-224.7c-26.6-38.8-81.7-353.4-222.7-1280.8c-181.8-1203.2-185.9-1231.8-151.2-1303.3c65.4-141,253.3-251.3,523-308.5c228.8-49,649.6-30.6,864.1,38.8c271.7,89.9,418.8,204.3,457.6,359.5c10.2,40.9,28.6,610.8,40.8,1268.6c22.5,1156.2,22.5,1195-14.3,1246.1c-89.9,120.5-335,202.2-655.7,214.5C3954.1,5009.4,3811.1,5005.3,3743.7,4995.1z"/><path d="M5766,4997.1c-149.1-24.5-316.6-77.6-392.2-122.6c-138.9-87.8-132.8-10.2-108.3-1334c10.2-653.7,26.6-1221.6,32.7-1258.4c26.5-167.5,286-337.1,619-404.5c236.9-47,629.2-32.7,829.4,32.7c269.6,85.8,418.8,218.6,418.8,375.9c0,40.8-77.6,604.7-173.6,1254.3c-132.8,894.8-183.9,1191-212.5,1229.8c-49,69.5-210.4,153.2-369.7,194.1C6256.3,5003.2,5913.1,5019.6,5766,4997.1z"/><path d="M7725.1,4984.8c-171.6-30.6-326.8-102.1-382-177.7l-38.8-53.1l102.1-549.5c57.2-300.3,159.3-845.7,226.7-1211.4c81.7-433.1,138.9-694.6,167.5-749.7c51.1-102.1,134.8-171.6,310.5-251.3c206.3-96,349.3-126.7,649.6-136.9c237-8.2,302.4-4.1,447.4,32.7c269.7,67.4,412.7,171.6,441.2,318.7c8.2,51.1-69.4,322.8-367.7,1258.4c-208.3,655.7-394.3,1221.6-412.6,1256.3C8760.8,4933.8,8180.6,5068.6,7725.1,4984.8z"/><path d="M791.8-1537.8v-2978.4l44.9-89.9c32.7-63.3,73.5-104.2,136.9-136.9l89.9-47H5000h3936.5l87.8,47c61.3,32.7,104.2,75.6,136.9,136.9l47,87.8v2980.5v2978.4H5000H791.8V-1537.8z M5187.9,500.9c290.1-28.6,508.7-89.9,762-214.5c263.5-128.7,439.2-257.4,635.3-463.7c874.3-921.3,772.2-2396.2-224.7-3194.9c-480-384.1-1119.4-549.5-1720-447.4c-243.1,42.9-408.6,98-641.4,216.5C3077.7-3133.3,2616-2062.9,2906.1-1066c247.2,851.8,1001,1481,1879.4,1564.8c89.9,10.2,173.6,18.4,183.8,18.4C4981.6,519.3,5079.7,511.1,5187.9,500.9z"/><path d="M4797.8-410.2C4554.7-461.3,4381-614.5,4315.7-831c-16.3-59.2-30.6-181.8-30.6-277.8c0-122.6-8.2-179.8-30.6-200.2c-81.7-83.8-51.1-333,61.3-492.3c38.8-55.1,100.1-163.4,138.9-241.1c89.9-187.9,175.7-281.9,316.6-351.4c157.3-77.6,300.3-77.6,457.6,0c141,69.5,226.7,163.4,316.6,351.4c38.8,77.6,100.1,185.9,138.9,241.1c112.4,159.3,143,408.6,61.3,492.3c-22.5,20.4-30.6,75.6-30.6,181.8c0,163.4-24.5,265.6-81.7,330.9c-20.4,22.5-40.8,63.3-47,91.9c-38.8,155.3-185.9,259.4-431,304.4C5004.1-371.4,4963.2-373.4,4797.8-410.2z"/><path d="M4160.4-2344.8c-141-59.2-296.2-132.8-347.3-161.4c-171.6-102.1-339.1-304.4-314.6-382c20.4-65.4,339.1-351.3,492.3-443.3c619-367.7,1401.3-363.6,2036.7,14.3c79.7,47,224.7,161.4,318.7,253.3c204.3,198.1,204.3,208.4,32.7,394.3c-122.6,134.8-239,202.2-578.1,341.1l-232.9,94l-83.7-89.9c-173.6-181.8-386.1-255.3-608.8-210.4c-132.8,28.6-308.5,136.9-382,237c-26.6,32.7-53.1,61.3-61.3,61.3C4423.9-2236.5,4301.4-2285.5,4160.4-2344.8z"/></g></g>
</svg>